<?xml version="1.0" encoding="utf-8"?>
<svg width="248" height="337" viewBox="0 0 248 337" fill="none" xmlns="http://www.w3.org/2000/svg">
  <defs>
    <clipPath id="clip_path_1">
      <rect width="248" height="337" />
    </clipPath>
  </defs>
  <g clip-path="url(#clip_path_1)">
    <g transform="translate(51 47)">
      <path d="M0 11.5C0 5.14873 5.14872 0 11.5 0C17.8513 0 23 5.14873 23 11.5C23 17.8513 17.8513 23 11.5 23C5.14872 23 0 17.8513 0 11.5Z" fill="#07203F" fill-rule="evenodd" transform="translate(35 0)" />
      <path d="M60.5383 109.5C60.5383 109.5 41.1499 63.3921 41.0383 56.5C40.9268 49.6079 45.6555 49.5576 46.5383 45.5C47.4211 41.4424 -8.21253 20.6794 1.03827 0C10.3521 9.77222 39.1797 20.5564 46.5381 17C53.8965 13.4436 91.4326 -0.229251 108.038 17C92.0786 16.2847 65.6485 28.1907 67.0381 37C68.4277 45.8093 72.355 47.1458 72.5381 53C72.7212 58.8542 60.5383 109.5 60.5383 109.5Z" fill="#07203F" fill-rule="evenodd" transform="translate(0 11)" />
    </g>
    <path d="M23.373 346.5C23.373 346.5 103.586 321.63 39.4202 258.757C-24.7449 195.884 -2.56924 152.863 48.8726 165C100.314 177.137 116.985 232.514 160.373 196.5C203.761 160.486 121.464 63.7996 220.373 0" fill="none" stroke-width="7" stroke="#D9D2D0" stroke-linecap="square" stroke-dasharray="15 25" transform="translate(27.627 -9.5)" />
    <path d="M0 2.5C0 1.11929 3.85532 0 8.61111 0C13.3669 0 17.2222 1.11929 17.2222 2.5C17.2222 3.88071 13.3669 5 8.61111 5C3.85532 5 0 3.88071 0 2.5Z" fill="#07203F" fill-rule="evenodd" fill-opacity="0.2" transform="translate(102.889 170)" />
  </g>
</svg>